<svg xmlns="http://www.w3.org/2000/svg" xmlns:v="http://schemas.microsoft.com/visio/2003/SVGExtensions/" xmlns:xlink="http://www.w3.org/1999/xlink" xml:space="preserve" viewBox="181.34 232.15 617.63 291.1">
 <rect x="181.34" y="232.15" width="617.63" height="291.1" fill="white"/>
 <v:documentProperties>
  <v:userDefs>
   <v:ud v:nameU="msvNoAutoConnect" v:val="1"/>
  </v:userDefs>
 </v:documentProperties>
 <g id="SFixTitle"/>
 <g id="SContent">
  <g>
   <g transform="matrix(1,0,0,-1,0,792)">
    <g transform="matrix(1,0,0,1,181.71002,443.5452)" v:mID="1">
     <title>Process</title>
     <userDefs>
      <ud nameU="visVersion" val="15"/>
      <ud nameU="DefaultWidth" val="1"/>
      <ud nameU="DefaultHeight" val="0.75"/>
      <ud nameU="ResizeTxtHeight" val="0.75"/>
     </userDefs>
     <custProps>
      <cp nameU="Cost" lbl="Cost" type="7" langID="1033" val="0"/>
      <cp nameU="ProcessNumber" lbl="Process Number" type="2" langID="1033" val="0"/>
      <cp nameU="Owner" lbl="Owner" type="0" langID="1033" val="0"/>
      <cp nameU="Function" lbl="Function" type="0" langID="1033"/>
      <cp nameU="StartDate" lbl="Start Date" type="5" langID="1033" val="0"/>
      <cp nameU="EndDate" lbl="End Date" type="5" langID="1033" val="0"/>
      <cp nameU="Status" lbl="Status" type="4" langID="1033"/>
     </custProps>
     <g transform="matrix(1,0,0,1,0,0)" v:mID="1">
      <title>Process</title>
      <userDefs>
       <ud nameU="visVersion" val="15"/>
       <ud nameU="DefaultWidth" val="1"/>
       <ud nameU="DefaultHeight" val="0.75"/>
       <ud nameU="ResizeTxtHeight" val="0.75"/>
      </userDefs>
      <custProps>
       <cp nameU="Cost" lbl="Cost" type="7" langID="1033" val="0"/>
       <cp nameU="ProcessNumber" lbl="Process Number" type="2" langID="1033" val="0"/>
       <cp nameU="Owner" lbl="Owner" type="0" langID="1033" val="0"/>
       <cp nameU="Function" lbl="Function" type="0" langID="1033"/>
       <cp nameU="StartDate" lbl="Start Date" type="5" langID="1033" val="0"/>
       <cp nameU="EndDate" lbl="End Date" type="5" langID="1033" val="0"/>
       <cp nameU="Status" lbl="Status" type="4" langID="1033"/>
      </custProps>
      <path d="M0,0 L96.703193665,0 L96.703193665,0 L96.703193665,54.885601044 L96.703193665,54.885601044 L0,54.885601044 L0,54.885601044 L0,0 Z" stroke="#000000" stroke-width="0.75" stroke-linecap="round" fill="none" stroke-opacity="0"/>
     </g>
     <path d="M0,0 L96.703193665,0 L96.703193665,0 L96.703193665,54.885601044 L96.703193665,54.885601044 L0,54.885601044 L0,54.885601044 L0,0 Z" stroke="#000000" stroke-width="0.75" stroke-linecap="round" fill="#FFFFFF" fill-rule="evenodd"/>
     <g transform="matrix(1,0,0,1,0,0)">
      <text x="35.683628" y="4.8" class="TextStyle0" fill="#000000" opacity="1" transform="matrix(1,0,0,-1,0,29.8428)">PEARL</text>
     </g>
    </g>
    <g transform="matrix(1,0,0,1,341.69403,443.538)" v:mID="2">
     <title>Process.2</title>
     <userDefs>
      <ud nameU="visVersion" val="15"/>
      <ud nameU="DefaultWidth" val="1"/>
      <ud nameU="DefaultHeight" val="0.75"/>
      <ud nameU="ResizeTxtHeight" val="0.75"/>
     </userDefs>
     <custProps>
      <cp nameU="Cost" lbl="Cost" type="7" langID="1033" val="0"/>
      <cp nameU="ProcessNumber" lbl="Process Number" type="2" langID="1033" val="0"/>
      <cp nameU="Owner" lbl="Owner" type="0" langID="1033" val="0"/>
      <cp nameU="Function" lbl="Function" type="0" langID="1033"/>
      <cp nameU="StartDate" lbl="Start Date" type="5" langID="1033" val="0"/>
      <cp nameU="EndDate" lbl="End Date" type="5" langID="1033" val="0"/>
      <cp nameU="Status" lbl="Status" type="4" langID="1033"/>
     </custProps>
     <path d="M0,0 L96.703193665,0 L96.703193665,0 L96.703193665,54.885601044 L96.703193665,54.885601044 L0,54.885601044 L0,54.885601044 L0,0 Z" stroke="#000000" stroke-width="0.75" stroke-linecap="round" fill="#FFFFFF" fill-rule="evenodd"/>
     <g transform="matrix(1,0,0,1,0,0)">
      <text x="37.017612" y="4.8" class="TextStyle0" fill="#000000" opacity="1" transform="matrix(1,0,0,-1,0,29.8428)">BAKU</text>
     </g>
    </g>
    <g transform="matrix(1,0,0,1,538.8372,498.40918)" v:mID="3">
     <title>Process.3</title>
     <userDefs>
      <ud nameU="visVersion" val="15"/>
      <ud nameU="DefaultWidth" val="1"/>
      <ud nameU="DefaultHeight" val="0.75"/>
      <ud nameU="ResizeTxtHeight" val="0.75"/>
     </userDefs>
     <custProps>
      <cp nameU="Cost" lbl="Cost" type="7" langID="1033" val="0"/>
      <cp nameU="ProcessNumber" lbl="Process Number" type="2" langID="1033" val="0"/>
      <cp nameU="Owner" lbl="Owner" type="0" langID="1033" val="0"/>
      <cp nameU="Function" lbl="Function" type="0" langID="1033"/>
      <cp nameU="StartDate" lbl="Start Date" type="5" langID="1033" val="0"/>
      <cp nameU="EndDate" lbl="End Date" type="5" langID="1033" val="0"/>
      <cp nameU="Status" lbl="Status" type="4" langID="1033"/>
     </custProps>
     <path d="M0,0 L96.703193665,0 L96.703193665,0 L96.703193665,54.885601044 L96.703193665,54.885601044 L0,54.885601044 L0,54.885601044 L0,0 Z" stroke="#000000" stroke-width="0.75" stroke-linecap="round" fill="#FFFFFF" fill-rule="evenodd"/>
     <g transform="matrix(1,0,0,1,0,0)">
      <text x="22.474646" y="4.8" class="TextStyle0" fill="#000000" opacity="1" transform="matrix(1,0,0,-1,0,29.8428)">In-game Market</text>
     </g>
    </g>
    <g transform="matrix(1,0,0,1,538.08844,388.6596)" v:mID="4">
     <title>Process.4</title>
     <userDefs>
      <ud nameU="visVersion" val="15"/>
      <ud nameU="DefaultWidth" val="1"/>
      <ud nameU="DefaultHeight" val="0.75"/>
      <ud nameU="ResizeTxtHeight" val="0.75"/>
     </userDefs>
     <custProps>
      <cp nameU="Cost" lbl="Cost" type="7" langID="1033" val="0"/>
      <cp nameU="ProcessNumber" lbl="Process Number" type="2" langID="1033" val="0"/>
      <cp nameU="Owner" lbl="Owner" type="0" langID="1033" val="0"/>
      <cp nameU="Function" lbl="Function" type="0" langID="1033"/>
      <cp nameU="StartDate" lbl="Start Date" type="5" langID="1033" val="0"/>
      <cp nameU="EndDate" lbl="End Date" type="5" langID="1033" val="0"/>
      <cp nameU="Status" lbl="Status" type="4" langID="1033"/>
     </custProps>
     <path d="M0,0 L96.703193665,0 L96.703193665,0 L96.703193665,54.885601044 L96.703193665,54.885601044 L0,54.885601044 L0,54.885601044 L0,0 Z" stroke="#000000" stroke-width="0.75" stroke-linecap="round" fill="#FFFFFF" fill-rule="evenodd"/>
     <g transform="matrix(1,0,0,1,0,0)">
      <text x="40.130894" y="4.8" class="TextStyle0" fill="#000000" opacity="1" transform="matrix(1,0,0,-1,0,29.8428)">DEX</text>
     </g>
    </g>
    <g transform="matrix(1,0,0,1,278.4132,479.9844)" v:mID="5">
     <title>Dynamic connector</title>
     <g transform="matrix(1,0,0,1,0,0)" v:mID="5">
      <title>Dynamic connector</title>
      <path d="M57.520801544,-11.883600235 L63.280799866,-9.003599167 L57.520801544,-6.123599052 Z" stroke="#000000" stroke-width="0.2376378" fill="#000000" fill-rule="evenodd" opacity="0" transform="matrix(1,0,0,1,0,0)"/>
      <path d="M0,-8.996399879 L6.75,-8.996399879 L6.75,-8.996399879 L6.75,-9.003599167 L6.75,-9.003599167 L63.280799866,-9.003599167 " stroke="#000000" stroke-width="0.2376378" stroke-linecap="round" fill="none" stroke-opacity="0"/>
     </g>
     <path d="M57.520801544,-11.883600235 L63.280799866,-9.003599167 L57.520801544,-6.123599052 Z" stroke="#000000" stroke-width="0.2376378" fill="#000000" fill-rule="evenodd" transform="matrix(1,0,0,1,0,0)"/>
     <path d="M0,-8.996399879 L6.75,-8.996399879 L6.75,-8.996399879 L6.75,-9.003599167 L6.75,-9.003599167 L63.280799866,-9.003599167 " stroke="#000000" stroke-width="0.2376378" stroke-linecap="round" fill="none"/>
    </g>
    <g transform="matrix(1,0,0,1,438.3972,470.9808)" v:mID="6">
     <title>Dynamic connector</title>
     <path d="M94.679992676,51.991195679 L100.440002441,54.871200562 L94.679992676,57.75120163 Z" stroke="#000000" stroke-width="0.2376378" fill="#000000" fill-rule="evenodd" transform="matrix(1,0,0,1,0,0)"/>
     <path d="M0,0 L13.5,0 L13.5,0 L13.5,54.871200562 L13.5,54.871200562 L100.440002441,54.871200562 " stroke="#000000" stroke-width="0.2376378" stroke-linecap="round" fill="none"/>
    </g>
    <g transform="matrix(1,0,0,1,438.3972,470.9808)" v:mID="7">
     <title>Dynamic connector</title>
     <path d="M93.93119812,-57.758399963 L99.691200256,-54.878398895 L93.93119812,-51.998397827 Z" stroke="#000000" stroke-width="0.2376378" fill="#000000" fill-rule="evenodd" transform="matrix(1,0,0,1,0,0)"/>
     <path d="M0,0 L13.5,0 L13.5,0 L13.5,-54.878398895 L13.5,-54.878398895 L99.691200256,-54.878398895 " stroke="#000000" stroke-width="0.2376378" stroke-linecap="round" fill="none"/>
    </g>
    <g transform="matrix(1,0,0,1,701.88837,443.53802)" v:mID="10">
     <title>Process.10</title>
     <userDefs>
      <ud nameU="visVersion" val="15"/>
      <ud nameU="DefaultWidth" val="1"/>
      <ud nameU="DefaultHeight" val="0.75"/>
      <ud nameU="ResizeTxtHeight" val="0.75"/>
     </userDefs>
     <custProps>
      <cp nameU="Cost" lbl="Cost" type="7" langID="1033" val="0"/>
      <cp nameU="ProcessNumber" lbl="Process Number" type="2" langID="1033" val="0"/>
      <cp nameU="Owner" lbl="Owner" type="0" langID="1033" val="0"/>
      <cp nameU="Function" lbl="Function" type="0" langID="1033"/>
      <cp nameU="StartDate" lbl="Start Date" type="5" langID="1033" val="0"/>
      <cp nameU="EndDate" lbl="End Date" type="5" langID="1033" val="0"/>
      <cp nameU="Status" lbl="Status" type="4" langID="1033"/>
     </custProps>
     <path d="M0,0 L96.703193665,0 L96.703193665,0 L96.703193665,20.98800087 L96.703193665,20.98800087 L0,20.98800087 L0,20.98800087 L0,0 Z" stroke="#000000" stroke-width="0.75" stroke-linecap="round" fill="#FFFFFF" fill-rule="evenodd"/>
     <g transform="matrix(1,0,0,1,0,0)">
      <text x="39.02152" y="4.8" class="TextStyle0" fill="#000000" opacity="1" transform="matrix(1,0,0,-1,0,12.894)">Seller</text>
     </g>
    </g>
    <g transform="matrix(1,0,0,1,701.88837,367.66443)" v:mID="11">
     <title>Process.11</title>
     <userDefs>
      <ud nameU="visVersion" val="15"/>
      <ud nameU="DefaultWidth" val="1"/>
      <ud nameU="DefaultHeight" val="0.75"/>
      <ud nameU="ResizeTxtHeight" val="0.75"/>
     </userDefs>
     <custProps>
      <cp nameU="Cost" lbl="Cost" type="7" langID="1033" val="0"/>
      <cp nameU="ProcessNumber" lbl="Process Number" type="2" langID="1033" val="0"/>
      <cp nameU="Owner" lbl="Owner" type="0" langID="1033" val="0"/>
      <cp nameU="Function" lbl="Function" type="0" langID="1033"/>
      <cp nameU="StartDate" lbl="Start Date" type="5" langID="1033" val="0"/>
      <cp nameU="EndDate" lbl="End Date" type="5" langID="1033" val="0"/>
      <cp nameU="Status" lbl="Status" type="4" langID="1033"/>
     </custProps>
     <path d="M0,0 L96.703193665,0 L96.703193665,0 L96.703193665,20.98800087 L96.703193665,20.98800087 L0,20.98800087 L0,20.98800087 L0,0 Z" stroke="#000000" stroke-width="0.75" stroke-linecap="round" fill="#FFFFFF" fill-rule="evenodd"/>
     <g transform="matrix(1,0,0,1,0,0)">
      <text x="38.57621" y="4.8" class="TextStyle0" fill="#000000" opacity="1" transform="matrix(1,0,0,-1,0,12.894)">Buyer</text>
     </g>
    </g>
    <g transform="matrix(1,0,0,1,634.7916,416.1024)" v:mID="12">
     <title>Dynamic connector</title>
     <path d="M61.336803436,35.049598694 L67.096801758,37.929599762 L61.336803436,40.80960083 Z" stroke="#000000" stroke-width="0.2376378" fill="#000000" fill-rule="evenodd" transform="matrix(1,0,0,1,0,0)"/>
     <path d="M0,0 L13.5,0 L13.5,0 L13.5,37.929599762 L13.5,37.929599762 L67.096801758,37.929599762 " stroke="#000000" stroke-width="0.2376378" stroke-linecap="round" fill="none"/>
    </g>
    <g transform="matrix(1,0,0,1,634.7916,416.10242)" v:mID="13">
     <title>Dynamic connector</title>
     <path d="M61.336803436,-40.824001312 L67.096801758,-37.944000244 L61.336803436,-35.064002991 Z" stroke="#000000" stroke-width="0.2376378" fill="#000000" fill-rule="evenodd" transform="matrix(1,0,0,1,0,0)"/>
     <path d="M0,0 L13.5,0 L13.5,0 L13.5,-37.944000244 L13.5,-37.944000244 L67.096801758,-37.944000244 " stroke="#000000" stroke-width="0.2376378" stroke-linecap="round" fill="none"/>
    </g>
    <g transform="matrix(1,0,0,1,750.24,367.6644)" v:mID="14">
     <title>Dynamic connector</title>
     <path d="M-365.954376221,72.993598938 L-360.194396973,75.873596191 L-365.954376221,78.753593445 Z" stroke="#000000" stroke-width="0.2376378" fill="#000000" fill-rule="evenodd" transform="matrix(0,1,-1,-0,-284.3208,436.068)"/>
     <path d="M0,0 L0,-31.641717911 L0,-31.641717911 L-160.800003052,-31.641717911 L-160.800003052,-31.641717911 L-160.800018311,-31.641717911 L-160.800018311,-31.641717911 C-160.800003052,-30.846374512 -161.116287231,-30.082792282 -161.67868042,-29.520399094 L-161.67868042,-29.520399094 C-162.241088867,-28.958003998 -163.004669189,-28.641717911 -163.800003052,-28.641717911 L-163.800003052,-28.641717911 C-164.595352173,-28.641716003 -165.358932495,-28.95800209 -165.921325684,-29.520395279 L-165.921325684,-29.520395279 C-166.483703613,-30.082784653 -166.799987793,-30.846366882 -166.799987793,-31.641710281 L-166.799987793,-31.641710281 C-166.799987793,-31.641712189 -166.799987793,-31.641716003 -166.799987793,-31.641717911 L-166.799987793,-31.641717911 L-166.799987793,-31.641717911 L-166.799987793,-31.641717911 L-360.194396973,-31.641717911 L-360.194396973,-31.641717911 L-360.194396973,75.873596191 " stroke="#000000" stroke-width="0.2376378" stroke-linecap="round" fill="none"/>
    </g>
    <g transform="matrix(1,0,0,1,390.04562,489.4272)" v:mID="15">
     <title>Dynamic connector</title>
     <path d="M-165.743988037,6.123599052 L-159.98399353,9.003599167 L-165.743988037,11.883600235 Z" stroke="#000000" stroke-width="0.2376378" fill="#000000" fill-rule="evenodd" transform="matrix(-0,-1,1,0,-168.9876,-150.9804)"/>
     <path d="M0,8.996399879 L0,22.496398926 L0,22.496398926 L-159.98399353,22.496398926 L-159.98399353,22.496398926 L-159.98399353,9.003599167 " stroke="#000000" stroke-width="0.2376378" stroke-linecap="round" fill="none"/>
    </g>
    <g transform="matrix(1,0,0,1,299.5668,477.4428)" v:mID="16">
     <title>On-page reference</title>
     <userDefs>
      <ud nameU="visVersion" val="15"/>
     </userDefs>
     <path d="M0,10.494000435 C0,13.276115417 1.106369376,15.947126389 3.07362175,17.91437912 L3.07362175,17.91437912 C5.040874004,19.881631851 7.711885929,20.98800087 10.494000435,20.98800087 L10.494000435,20.98800087 C13.276115417,20.98800087 15.947126389,19.881631851 17.91437912,17.91437912 L17.91437912,17.91437912 C19.881631851,15.947126389 20.98800087,13.276115417 20.98800087,10.494000435 L20.98800087,10.494000435 C20.98800087,7.711885929 19.881631851,5.040874004 17.91437912,3.07362175 L17.91437912,3.07362175 C15.947126389,1.106369376 13.276115417,0 10.494000435,0 L10.494000435,0 C7.711885929,0 5.040874004,1.106369376 3.07362175,3.07362175 L3.07362175,3.07362175 C1.106369376,5.040874004 0,7.711885929 0,10.494000435 Z" stroke="#000000" stroke-width="0.75" stroke-linecap="round" fill="#FFFFFF" fill-rule="evenodd"/>
     <g transform="matrix(1,0,0,1,0,0)">
      <text x="8.4939995" y="4.8" class="TextStyle0" fill="#000000" opacity="1" transform="matrix(1,0,0,-1,0,12.894)">1</text>
     </g>
    </g>
    <g transform="matrix(1,0,0,1,481.6476,538.4916)" v:mID="17">
     <title>On-page reference.17</title>
     <userDefs>
      <ud nameU="visVersion" val="15"/>
     </userDefs>
     <path d="M0,10.494000435 C0,13.276115417 1.106369376,15.947126389 3.07362175,17.91437912 L3.07362175,17.91437912 C5.040874004,19.881631851 7.711885929,20.98800087 10.494000435,20.98800087 L10.494000435,20.98800087 C13.276115417,20.98800087 15.947126389,19.881631851 17.91437912,17.91437912 L17.91437912,17.91437912 C19.881631851,15.947126389 20.98800087,13.276115417 20.98800087,10.494000435 L20.98800087,10.494000435 C20.98800087,7.711885929 19.881631851,5.040874004 17.91437912,3.07362175 L17.91437912,3.07362175 C15.947126389,1.106369376 13.276115417,0 10.494000435,0 L10.494000435,0 C7.711885929,0 5.040874004,1.106369376 3.07362175,3.07362175 L3.07362175,3.07362175 C1.106369376,5.040874004 0,7.711885929 0,10.494000435 Z" stroke="#000000" stroke-width="0.75" stroke-linecap="round" fill="#FFFFFF" fill-rule="evenodd"/>
     <g transform="matrix(1,0,0,1,0,0)">
      <text x="8.4939995" y="4.8" class="TextStyle0" fill="#000000" opacity="1" transform="matrix(1,0,0,-1,0,12.894)">2</text>
     </g>
    </g>
    <g transform="matrix(1,0,0,1,481.6476,380.394)" v:mID="18">
     <title>On-page reference.18</title>
     <userDefs>
      <ud nameU="visVersion" val="15"/>
     </userDefs>
     <path d="M0,10.494000435 C0,13.276115417 1.106369376,15.947126389 3.07362175,17.91437912 L3.07362175,17.91437912 C5.040874004,19.881631851 7.711885929,20.98800087 10.494000435,20.98800087 L10.494000435,20.98800087 C13.276115417,20.98800087 15.947126389,19.881631851 17.91437912,17.91437912 L17.91437912,17.91437912 C19.881631851,15.947126389 20.98800087,13.276115417 20.98800087,10.494000435 L20.98800087,10.494000435 C20.98800087,7.711885929 19.881631851,5.040874004 17.91437912,3.07362175 L17.91437912,3.07362175 C15.947126389,1.106369376 13.276115417,0 10.494000435,0 L10.494000435,0 C7.711885929,0 5.040874004,1.106369376 3.07362175,3.07362175 L3.07362175,3.07362175 C1.106369376,5.040874004 0,7.711885929 0,10.494000435 Z" stroke="#000000" stroke-width="0.75" stroke-linecap="round" fill="#FFFFFF" fill-rule="evenodd"/>
     <g transform="matrix(1,0,0,1,0,0)">
      <text x="8.4939995" y="4.8" class="TextStyle0" fill="#000000" opacity="1" transform="matrix(1,0,0,-1,0,12.894)">3</text>
     </g>
    </g>
    <g transform="matrix(1,0,0,1,663.8076,467.3844)" v:mID="19">
     <title>On-page reference.19</title>
     <userDefs>
      <ud nameU="visVersion" val="15"/>
     </userDefs>
     <path d="M0,10.494000435 C0,13.276115417 1.106369376,15.947126389 3.07362175,17.91437912 L3.07362175,17.91437912 C5.040874004,19.881631851 7.711885929,20.98800087 10.494000435,20.98800087 L10.494000435,20.98800087 C13.276115417,20.98800087 15.947126389,19.881631851 17.91437912,17.91437912 L17.91437912,17.91437912 C19.881631851,15.947126389 20.98800087,13.276115417 20.98800087,10.494000435 L20.98800087,10.494000435 C20.98800087,7.711885929 19.881631851,5.040874004 17.91437912,3.07362175 L17.91437912,3.07362175 C15.947126389,1.106369376 13.276115417,0 10.494000435,0 L10.494000435,0 C7.711885929,0 5.040874004,1.106369376 3.07362175,3.07362175 L3.07362175,3.07362175 C1.106369376,5.040874004 0,7.711885929 0,10.494000435 Z" stroke="#000000" stroke-width="0.75" stroke-linecap="round" fill="#FFFFFF" fill-rule="evenodd"/>
     <g transform="matrix(1,0,0,1,0,0)">
      <text x="8.4939995" y="4.8" class="TextStyle0" fill="#000000" opacity="1" transform="matrix(1,0,0,-1,0,12.894)">4</text>
     </g>
    </g>
    <g transform="matrix(1,0,0,1,663.8076,345.99963)" v:mID="20">
     <title>On-page reference.20</title>
     <userDefs>
      <ud nameU="visVersion" val="15"/>
     </userDefs>
     <path d="M0,10.494000435 C0,13.276115417 1.106369376,15.947126389 3.07362175,17.91437912 L3.07362175,17.91437912 C5.040874004,19.881631851 7.711885929,20.98800087 10.494000435,20.98800087 L10.494000435,20.98800087 C13.276115417,20.98800087 15.947126389,19.881631851 17.91437912,17.91437912 L17.91437912,17.91437912 C19.881631851,15.947126389 20.98800087,13.276115417 20.98800087,10.494000435 L20.98800087,10.494000435 C20.98800087,7.711885929 19.881631851,5.040874004 17.91437912,3.07362175 L17.91437912,3.07362175 C15.947126389,1.106369376 13.276115417,0 10.494000435,0 L10.494000435,0 C7.711885929,0 5.040874004,1.106369376 3.07362175,3.07362175 L3.07362175,3.07362175 C1.106369376,5.040874004 0,7.711885929 0,10.494000435 Z" stroke="#000000" stroke-width="0.75" stroke-linecap="round" fill="#FFFFFF" fill-rule="evenodd"/>
     <g transform="matrix(1,0,0,1,0,0)">
      <text x="8.4939995" y="4.8" class="TextStyle0" fill="#000000" opacity="1" transform="matrix(1,0,0,-1,0,12.894)">5</text>
     </g>
    </g>
    <g transform="matrix(1,0,0,1,657.1044,269.1252)" v:mID="21">
     <title>On-page reference.21</title>
     <userDefs>
      <ud nameU="visVersion" val="15"/>
     </userDefs>
     <path d="M0,10.494000435 C0,13.276115417 1.106369376,15.947126389 3.07362175,17.91437912 L3.07362175,17.91437912 C5.040874004,19.881631851 7.711885929,20.98800087 10.494000435,20.98800087 L10.494000435,20.98800087 C13.276115417,20.98800087 15.947126389,19.881631851 17.91437912,17.91437912 L17.91437912,17.91437912 C19.881631851,15.947126389 20.98800087,13.276115417 20.98800087,10.494000435 L20.98800087,10.494000435 C20.98800087,7.711885929 19.881631851,5.040874004 17.91437912,3.07362175 L17.91437912,3.07362175 C15.947126389,1.106369376 13.276115417,0 10.494000435,0 L10.494000435,0 C7.711885929,0 5.040874004,1.106369376 3.07362175,3.07362175 L3.07362175,3.07362175 C1.106369376,5.040874004 0,7.711885929 0,10.494000435 Z" stroke="#000000" stroke-width="0.75" stroke-linecap="round" fill="#FFFFFF" fill-rule="evenodd"/>
     <g transform="matrix(1,0,0,1,0,0)">
      <text x="8.4939995" y="4.8" class="TextStyle0" fill="#000000" opacity="1" transform="matrix(1,0,0,-1,0,12.894)">6</text>
     </g>
    </g>
    <g transform="matrix(1,0,0,1,481.6476,312.4692)" v:mID="22">
     <title>On-page reference.22</title>
     <userDefs>
      <ud nameU="visVersion" val="15"/>
     </userDefs>
     <path d="M0,10.494000435 C0,13.276115417 1.106369376,15.947126389 3.07362175,17.91437912 L3.07362175,17.91437912 C5.040874004,19.881631851 7.711885929,20.98800087 10.494000435,20.98800087 L10.494000435,20.98800087 C13.276115417,20.98800087 15.947126389,19.881631851 17.91437912,17.91437912 L17.91437912,17.91437912 C19.881631851,15.947126389 20.98800087,13.276115417 20.98800087,10.494000435 L20.98800087,10.494000435 C20.98800087,7.711885929 19.881631851,5.040874004 17.91437912,3.07362175 L17.91437912,3.07362175 C15.947126389,1.106369376 13.276115417,0 10.494000435,0 L10.494000435,0 C7.711885929,0 5.040874004,1.106369376 3.07362175,3.07362175 L3.07362175,3.07362175 C1.106369376,5.040874004 0,7.711885929 0,10.494000435 Z" stroke="#000000" stroke-width="0.75" stroke-linecap="round" fill="#FFFFFF" fill-rule="evenodd"/>
     <g transform="matrix(1,0,0,1,0,0)">
      <text x="8.4939995" y="4.8" class="TextStyle0" fill="#000000" opacity="1" transform="matrix(1,0,0,-1,0,12.894)">7</text>
     </g>
    </g>
    <g transform="matrix(1,0,0,1,750.24005,367.66443)" v:mID="23">
     <title>Dynamic connector</title>
     <path d="M-169.559997559,18.115200043 L-163.800003052,20.995199203 L-169.559997559,23.875198364 Z" stroke="#000000" stroke-width="0.2376378" fill="#000000" fill-rule="evenodd" transform="matrix(0,1,-1,-0,-142.80481,184.7952)"/>
     <path d="M0,0 L0,-70.172187805 L0,-70.172187805 L-163.800003052,-70.172187805 L-163.800003052,-70.172187805 L-163.800003052,20.995199203 " stroke="#000000" stroke-width="0.2376378" stroke-linecap="round" fill="none"/>
    </g>
    <g transform="matrix(1,0,0,1,299.55963,523.5588)" v:mID="24">
     <title>On-page reference.24</title>
     <userDefs>
      <ud nameU="visVersion" val="15"/>
     </userDefs>
     <path d="M0,10.494000435 C0,13.276115417 1.106369376,15.947126389 3.07362175,17.91437912 L3.07362175,17.91437912 C5.040874004,19.881631851 7.711885929,20.98800087 10.494000435,20.98800087 L10.494000435,20.98800087 C13.276115417,20.98800087 15.947126389,19.881631851 17.91437912,17.91437912 L17.91437912,17.91437912 C19.881631851,15.947126389 20.98800087,13.276115417 20.98800087,10.494000435 L20.98800087,10.494000435 C20.98800087,7.711885929 19.881631851,5.040874004 17.91437912,3.07362175 L17.91437912,3.07362175 C15.947126389,1.106369376 13.276115417,0 10.494000435,0 L10.494000435,0 C7.711885929,0 5.040874004,1.106369376 3.07362175,3.07362175 L3.07362175,3.07362175 C1.106369376,5.040874004 0,7.711885929 0,10.494000435 Z" stroke="#000000" stroke-width="0.75" stroke-linecap="round" fill="#FFFFFF" fill-rule="evenodd"/>
     <g transform="matrix(1,0,0,1,0,0)">
      <text x="8.4939995" y="4.8" class="TextStyle0" fill="#000000" opacity="1" transform="matrix(1,0,0,-1,0,12.894)">8</text>
     </g>
    </g>
   </g>
  </g>
 </g>
 <style type="text/css"><![CDATA[ .TextStyle0 {font-family:Times New Roman;font-size:8px;} ]]></style>
</svg>
